<svg id="visual" viewBox="0 0 900 600" width="900" height="600" xmlns="http://www.w3.org/2000/svg" xmlns:xlink="http://www.w3.org/1999/xlink" version="1.1"><rect x="0" y="0" width="900" height="600" fill="#001220"></rect><defs><linearGradient id="grad1_0" x1="33.3%" y1="0%" x2="100%" y2="100%"><stop offset="20%" stop-color="#001220" stop-opacity="1"></stop><stop offset="80%" stop-color="#001220" stop-opacity="1"></stop></linearGradient></defs><defs><linearGradient id="grad2_0" x1="0%" y1="0%" x2="66.7%" y2="100%"><stop offset="20%" stop-color="#001220" stop-opacity="1"></stop><stop offset="80%" stop-color="#001220" stop-opacity="1"></stop></linearGradient></defs><g transform="translate(900, 0)"><path d="M0 486.7C-46.3 434.7 -92.5 382.7 -150.4 363.1C-208.3 343.5 -277.8 356.3 -332.3 332.3C-386.9 308.4 -426.5 247.8 -449.7 186.3C-472.9 124.8 -479.8 62.4 -486.7 0L0 0Z" fill="#FBAE3C"></path></g><g transform="translate(0, 600)"><path d="M0 -486.7C49.8 -448.3 99.6 -409.9 162.6 -392.6C225.7 -375.4 301.9 -379.3 344.2 -344.2C386.5 -309.1 394.9 -234.9 413 -171.1C431.1 -107.2 458.9 -53.6 486.7 0L0 0Z" fill="#FBAE3C"></path></g></svg>